<mxfile host="65bd71144e">
    <diagram id="etx_hm-68wEEfeM38dKM" name="ページ1">
        <mxGraphModel dx="1042" dy="453" grid="1" gridSize="10" guides="1" tooltips="1" connect="1" arrows="1" fold="1" page="1" pageScale="1" pageWidth="827" pageHeight="1169" math="0" shadow="0">
            <root>
                <mxCell id="0"/>
                <mxCell id="1" parent="0"/>
                <mxCell id="15" value="" style="rounded=0;whiteSpace=wrap;html=1;fillColor=none;" vertex="1" parent="1">
                    <mxGeometry x="680" y="520" width="147" height="310" as="geometry"/>
                </mxCell>
                <mxCell id="2" value="Next" style="rounded=0;whiteSpace=wrap;html=1;" parent="1" vertex="1">
                    <mxGeometry x="310" y="180" width="120" height="60" as="geometry"/>
                </mxCell>
                <mxCell id="3" value="microCMS" style="whiteSpace=wrap;html=1;rounded=0;" parent="1" vertex="1">
                    <mxGeometry x="310" y="320" width="120" height="60" as="geometry"/>
                </mxCell>
                <mxCell id="5" value="Vercel" style="rounded=0;whiteSpace=wrap;html=1;" parent="1" vertex="1">
                    <mxGeometry x="480" y="320" width="120" height="60" as="geometry"/>
                </mxCell>
                <mxCell id="6" value="Planetscale" style="rounded=0;whiteSpace=wrap;html=1;" parent="1" vertex="1">
                    <mxGeometry x="590" y="130" width="120" height="60" as="geometry"/>
                </mxCell>
                <mxCell id="7" value="Prisma" style="rounded=0;whiteSpace=wrap;html=1;" parent="1" vertex="1">
                    <mxGeometry x="590" y="220" width="120" height="60" as="geometry"/>
                </mxCell>
                <mxCell id="8" value="libs/&lt;br&gt;blog-post.ts" style="rounded=0;whiteSpace=wrap;html=1;" vertex="1" parent="1">
                    <mxGeometry x="520" y="560" width="120" height="40" as="geometry"/>
                </mxCell>
                <mxCell id="10" style="edgeStyle=none;html=1;" edge="1" parent="1" source="9" target="8">
                    <mxGeometry relative="1" as="geometry"/>
                </mxCell>
                <mxCell id="9" value="pages/api/&lt;br&gt;create-post.ts" style="rounded=0;whiteSpace=wrap;html=1;fontStyle=0" vertex="1" parent="1">
                    <mxGeometry x="320" y="560" width="120" height="40" as="geometry"/>
                </mxCell>
                <mxCell id="12" style="edgeStyle=none;html=1;entryX=0;entryY=0.5;entryDx=0;entryDy=0;" edge="1" parent="1" source="11" target="9">
                    <mxGeometry relative="1" as="geometry"/>
                </mxCell>
                <mxCell id="11" value="pages/&lt;br&gt;blog.tsx" style="rounded=0;whiteSpace=wrap;html=1;" vertex="1" parent="1">
                    <mxGeometry x="120" y="560" width="120" height="40" as="geometry"/>
                </mxCell>
                <mxCell id="13" value="フロントから直接呼べないのでAPIを経由" style="text;html=1;strokeColor=none;fillColor=none;align=left;verticalAlign=middle;rounded=0;labelPosition=center;verticalLabelPosition=middle;" vertex="1" parent="1">
                    <mxGeometry x="320" y="600" width="120" height="30" as="geometry"/>
                </mxCell>
            </root>
        </mxGraphModel>
    </diagram>
</mxfile>